<ttFont>
<head>
    <!-- Most of this table will be recalculated by the compiler -->
    <tableVersion value="1.0"/>
    <fontRevision value="1.004"/>
    <checkSumAdjustment value="0xf5c0d81a"/>
    <magicNumber value="0x5f0f3cf5"/>
    <flags value="00000000 00000011"/>
    <unitsPerEm value="1000"/>
    <created value="Mon Jun 15 05:07:17 2015"/>
    <modified value="Mon Jun 15 05:07:17 2015"/>
    <xMin value="-1002"/>
    <yMin value="-1048"/>
    <xMax value="2928"/>
    <yMax value="1808"/>
    <macStyle value="00000000 00000000"/>
    <lowestRecPPEM value="3"/>
    <fontDirectionHint value="2"/>
    <indexToLocFormat value="0"/>
    <glyphDataFormat value="0"/>
  </head>
              <CharString index="0">
                311 -13 rmoveto
                74 58 25 31 48 hvcurveto
                -33 60 rlineto
                -27 -40 -43 -16 -53 hhcurveto
                -103 -71 74 116 -6 hvcurveto
                366 hlineto
                2 13 2 19 20 vvcurveto
                155 -78 100 -138 279 callgsubr
                256 callgsubr
                -179 116 -105 144 vhcurveto
                -170 328 rmoveto
                107 11 68 62 77 hhcurveto
                85 50 -59 -110 hvcurveto
                return
              </CharString>
              <CharString index="1" raw="1">
              </CharString>
              <CharString index="2" raw="1">
              </CharString>
              <CharString index="3" raw="1">
              </CharString>
              <CharString index="4" raw="1">
              </CharString>
              <CharString index="5">
                8 -65 rlineto
                75 334 hlineto
                134 -56 89 -132 -87 -77 -39 -32 -50 vhcurveto
                36 -63 rlineto
                29 43 57 29 63 hhcurveto
                89 23 -67 -70 hvcurveto
                -231 -26 -103 248 callgsubr
                return
              </CharString>
              <CharString index="6" raw="1">
              </CharString>
              <CharString index="7" raw="1">
              </CharString>
              <CharString index="8" raw="1">
              </CharString>
              <CharString index="9">
                -98 68 -56 91 vhcurveto
                26 73 rmoveto
                -54 -42 25 62 70 62 45 183 22 hvcurveto
                -152 vlineto
                -47 -53 -43 -25 -53 hhcurveto
                return
              </CharString>
              <CharString index="10" raw="1">
              </CharString>
              <CharString index="11" raw="1">
              </CharString>
              <CharString index="12" raw="1">
              </CharString>
              <CharString index="13" raw="1">
              </CharString>
              <CharString index="14" raw="1">
              </CharString>
              <CharString index="15" raw="1">
              </CharString>
              <CharString index="16" raw="1">
              </CharString>
              <CharString index="17">
                217 -13 rmoveto
                67 61 35 43 52 hvcurveto
                3 hlineto
                return
              </CharString>
              <CharString index="18" raw="1">
              </CharString>
              <CharString index="19" raw="1">
              </CharString>
              <CharString index="20" raw="1">
              </CharString>
              <CharString index="21" raw="1">
              </CharString>
              <CharString index="22" raw="1">
              </CharString>
              <CharString index="23" raw="1">
              </CharString>
              <CharString index="24" raw="1">
              </CharString>
              <CharString index="25" raw="1">
              </CharString>
              <CharString index="26" raw="1">
              </CharString>
              <CharString index="27" raw="1">
              </CharString>
              <CharString index="28" raw="1">
              </CharString>
              <CharString index="29" raw="1">
              </CharString>
              <CharString index="30" raw="1">
              </CharString>
              <CharString index="31" raw="1">
              </CharString>
              <CharString index="32" raw="1">
              </CharString>
              <CharString index="33" raw="1">
              </CharString>
              <CharString index="34" raw="1">
              </CharString>
              <CharString index="35">
                -71 -13 73 -39 -21 481 76 return
              </CharString>
              <CharString index="36" raw="1">
              </CharString>
              <CharString index="37" raw="1">
              </CharString>
              <CharString index="38" raw="1">
              </CharString>
              <CharString index="39" raw="1">
              </CharString>
              <CharString index="40" raw="1">
              </CharString>
              <CharString index="41" raw="1">
              </CharString>
              <CharString index="42" raw="1">
              </CharString>
              <CharString index="43">
                -81 -63 callsubr
                return
              </CharString>
              <CharString index="44">
                -13 73 190 65 169 73 return
              </CharString>
              <CharString index="45" raw="1">
              </CharString>
              <CharString index="46" raw="1">
              </CharString>
              <CharString index="47" raw="1">
              </CharString>
              <CharString index="48" raw="1">
              </CharString>
              <CharString index="49" raw="1">
              </CharString>
              <CharString index="50" raw="1">
              </CharString>
              <CharString index="51" raw="1">
              </CharString>
              <CharString index="52" raw="1">
              </CharString>
              <CharString index="53" raw="1">
              </CharString>
              <CharString index="54" raw="1">
              </CharString>
              <CharString index="55" raw="1">
              </CharString>
              <CharString index="56" raw="1">
              </CharString>
              <CharString index="57" raw="1">
              </CharString>
              <CharString index="58" raw="1">
              </CharString>
              <CharString index="59" raw="1">
              </CharString>
              <CharString index="60">
                -126 102 callsubr
                vstem
                306 -13 rmoveto
                65 62 25 44 48 hvcurveto
                -39 61 rlineto
                -31 -34 -44 -23 -50 hhcurveto
                -100 -68 122 callgsubr
                72 85 98 44 33 -20 -29 32 hvcurveto
                47 61 rlineto
                34 -39 -49 30 -71 hhcurveto
                -139 -123 -105 -181 -180 111 -104 144 hvcurveto
                endchar
              </CharString>
              <CharString index="61" raw="1">
              </CharString>
              <CharString index="62" raw="1">
              </CharString>
              <CharString index="63" raw="1">
              </CharString>
              <CharString index="64" raw="1">
              </CharString>
              <CharString index="65" raw="1">
              </CharString>
              <CharString index="66">
                -13 76 418 76 return
              </CharString>
              <CharString index="67" raw="1">
              </CharString>
              <CharString index="68" raw="1">
              </CharString>
              <CharString index="69" raw="1">
              </CharString>
              <CharString index="70" raw="1">
              </CharString>
              <CharString index="71">
                rmoveto
                -96 -54 78 131 124 69 84 88 45 41 -16 -41 46 hvcurveto
                -285 vlineto
                -50 -45 -44 -25 -50 hhcurveto
                endchar
              </CharString>
              <CharString index="72" raw="1">
              </CharString>
              <CharString index="73">
                -74 -5 rlineto
                -69 74 -33 callsubr
                -17 callsubr
                return
              </CharString>
              <CharString index="74">
                -469 91 469 115 74 -115 86 vlineto
                return
              </CharString>
              <CharString index="75" raw="1">
              </CharString>
              <CharString index="76" raw="1">
              </CharString>
              <CharString index="77" raw="1">
              </CharString>
              <CharString index="78" raw="1">
              </CharString>
              <CharString index="79" raw="1">
              </CharString>
              <CharString index="80" raw="1">
              </CharString>
              <CharString index="81" raw="1">
              </CharString>
              <CharString index="82" raw="1">
              </CharString>
              <CharString index="83" raw="1">
              </CharString>
              <CharString index="84" raw="1">
              </CharString>
              <CharString index="85" raw="1">
              </CharString>
              <CharString index="86" raw="1">
              </CharString>
              <CharString index="87" raw="1">
              </CharString>
              <CharString index="88" raw="1">
              </CharString>
              <CharString index="89" raw="1">
              </CharString>
              <CharString index="90">
                70 25 37 52 328 callgsubr
                return
              </CharString>
              <CharString index="91" raw="1">
              </CharString>
              <CharString index="92" raw="1">
              </CharString>
              <CharString index="93" raw="1">
              </CharString>
              <CharString index="94" raw="1">
              </CharString>
              <CharString index="95" raw="1">
              </CharString>
              <CharString index="96" raw="1">
              </CharString>
              <CharString index="97" raw="1">
              </CharString>
              <CharString index="98" raw="1">
              </CharString>
              <CharString index="99">
                hstemhm
                58 89 245 91 return
              </CharString>
              <CharString index="100" raw="1">
              </CharString>
              <CharString index="101" raw="1">
              </CharString>
              <CharString index="102" raw="1">
              </CharString>
              <CharString index="103" raw="1">
              </CharString>
              <CharString index="104" raw="1">
              </CharString>
              <CharString index="105" raw="1">
              </CharString>
              <CharString index="106" raw="1">
              </CharString>
              <CharString index="107" raw="1">
              </CharString>
              <CharString index="108" raw="1">
              </CharString>
              <CharString index="109" raw="1">
              </CharString>
              <CharString index="110" raw="1">
              </CharString>
              <CharString index="111" raw="1">
              </CharString>
              <CharString index="112" raw="1">
              </CharString>
              <CharString index="113" raw="1">
              </CharString>
              <CharString index="114" raw="1">
              </CharString>
              <CharString index="115" raw="1">
              </CharString>
              <CharString index="116" raw="1">
              </CharString>
              <CharString index="117" raw="1">
              </CharString>
              <CharString index="118" raw="1">
              </CharString>
              <CharString index="119" raw="1">
              </CharString>
              <CharString index="120" raw="1">
              </CharString>
              <CharString index="121" raw="1">
              </CharString>
              <CharString index="122" raw="1">
              </CharString>
              <CharString index="123" raw="1">
              </CharString>
              <CharString index="124" raw="1">
              </CharString>
              <CharString index="125" raw="1">
              </CharString>
              <CharString index="126" raw="1">
              </CharString>
              <CharString index="127" raw="1">
              </CharString>
              <CharString index="128" raw="1">
              </CharString>
              <CharString index="129" raw="1">
              </CharString>
              <CharString index="130" raw="1">
              </CharString>
              <CharString index="131" raw="1">
              </CharString>
              <CharString index="132" raw="1">
              </CharString>
              <CharString index="133" raw="1">
              </CharString>
              <CharString index="134" raw="1">
              </CharString>
              <CharString index="135" raw="1">
              </CharString>
              <CharString index="136" raw="1">
              </CharString>
              <CharString index="137">
                11 -26 -32 7 -33 hhcurveto
                -108 -50 -69 -110 hvcurveto
                return
              </CharString>
              <CharString index="138" raw="1">
              </CharString>
              <CharString index="139" raw="1">
              </CharString>
              <CharString index="140" raw="1">
              </CharString>
              <CharString index="141" raw="1">
              </CharString>
              <CharString index="142" raw="1">
              </CharString>
              <CharString index="143" raw="1">
              </CharString>
              <CharString index="144" raw="1">
              </CharString>
              <CharString index="145" raw="1">
              </CharString>
              <CharString index="146" raw="1">
              </CharString>
              <CharString index="147" raw="1">
              </CharString>
              <CharString index="148" raw="1">
              </CharString>
              <CharString index="149" raw="1">
              </CharString>
              <CharString index="150" raw="1">
              </CharString>
              <CharString index="151" raw="1">
              </CharString>
              <CharString index="152" raw="1">
              </CharString>
              <CharString index="153" raw="1">
              </CharString>
              <CharString index="154" raw="1">
              </CharString>
              <CharString index="155" raw="1">
              </CharString>
              <CharString index="156" raw="1">
              </CharString>
              <CharString index="157" raw="1">
              </CharString>
              <CharString index="158" raw="1">
              </CharString>
              <CharString index="159" raw="1">
              </CharString>
              <CharString index="160" raw="1">
              </CharString>
              <CharString index="161" raw="1">
              </CharString>
              <CharString index="162" raw="1">
              </CharString>
              <CharString index="163" raw="1">
              </CharString>
              <CharString index="164" raw="1">
              </CharString>
              <CharString index="165" raw="1">
              </CharString>
              <CharString index="166" raw="1">
              </CharString>
              <CharString index="167" raw="1">
              </CharString>
              <CharString index="168" raw="1">
              </CharString>
              <CharString index="169" raw="1">
              </CharString>
              <CharString index="170" raw="1">
              </CharString>
              <CharString index="171" raw="1">
              </CharString>
              <CharString index="172" raw="1">
              </CharString>
              <CharString index="173" raw="1">
              </CharString>
              <CharString index="174" raw="1">
              </CharString>
              <CharString index="175" raw="1">
              </CharString>
              <CharString index="176" raw="1">
              </CharString>
              <CharString index="177" raw="1">
              </CharString>
              <CharString index="178" raw="1">
              </CharString>
              <CharString index="179" raw="1">
              </CharString>
              <CharString index="180" raw="1">
              </CharString>
              <CharString index="181" raw="1">
              </CharString>
              <CharString index="182" raw="1">
              </CharString>
              <CharString index="183" raw="1">
              </CharString>
              <CharString index="184" raw="1">
              </CharString>
              <CharString index="185" raw="1">
              </CharString>
              <CharString index="186" raw="1">
              </CharString>
              <CharString index="187" raw="1">
              </CharString>
              <CharString index="188" raw="1">
              </CharString>
              <CharString index="189" raw="1">
              </CharString>
              <CharString index="190" raw="1">
              </CharString>
              <CharString index="191" raw="1">
              </CharString>
              <CharString index="192" raw="1">
              </CharString>
              <CharString index="193" raw="1">
              </CharString>
              <CharString index="194" raw="1">
              </CharString>
              <CharString index="195" raw="1">
              </CharString>
              <CharString index="196">
                21 127 callsubr
                return
              </CharString>
              <CharString index="197" raw="1">
              </CharString>
              <CharString index="198" raw="1">
              </CharString>
              <CharString index="199" raw="1">
              </CharString>
              <CharString index="200" raw="1">
              </CharString>
              <CharString index="201" raw="1">
              </CharString>
              <CharString index="202" raw="1">
              </CharString>
              <CharString index="203" raw="1">
              </CharString>
              <CharString index="204" raw="1">
              </CharString>
              <CharString index="205" raw="1">
              </CharString>
              <CharString index="206" raw="1">
              </CharString>
              <CharString index="207" raw="1">
              </CharString>
              <CharString index="208" raw="1">
              </CharString>
              <CharString index="209">
                -41 callsubr
                hstem
                51 95 return
              </CharString>
              <CharString index="210" raw="1">
              </CharString>
              <CharString index="211" raw="1">
              </CharString>
              <CharString index="212" raw="1">
              </CharString>
              <CharString index="213" raw="1">
              </CharString>
              <CharString index="214" raw="1">
              </CharString>
              <CharString index="215">
                277 -13 rmoveto
                65 57 35 42 43 hvcurveto
                2 hlineto
                return
              </CharString>
              <CharString index="216" raw="1">
              </CharString>
              <CharString index="217" raw="1">
              </CharString>
              <CharString index="218" raw="1">
              </CharString>
              <CharString index="219" raw="1">
              </CharString>
              <CharString index="220" raw="1">
              </CharString>
              <CharString index="221" raw="1">
              </CharString>
              <CharString index="222" raw="1">
              </CharString>
              <CharString index="223">
                hstemhm
                53 94 289 91 return
              </CharString>
              <CharString index="224" raw="1">
              </CharString>
              <CharString index="225" raw="1">
              </CharString>
              <CharString index="226" raw="1">
              </CharString>
              <CharString index="227" raw="1">
              </CharString>
              <CharString index="228" raw="1">
              </CharString>
              <CharString index="229" raw="1">
              </CharString>
              <CharString index="230" raw="1">
              </CharString>
              <CharString index="231" raw="1">
              </CharString>
              <CharString index="232" raw="1">
              </CharString>
              <CharString index="233" raw="1">
              </CharString>
              <CharString index="234">
                -21 469 74 return
              </CharString>
              <CharString index="235" raw="1">
              </CharString>
              <CharString index="236" raw="1">
              </CharString>
              <CharString index="237" raw="1">
              </CharString>
              <CharString index="238" raw="1">
              </CharString>
              <CharString index="239" raw="1">
              </CharString>
              <CharString index="240" raw="1">
              </CharString>
              <CharString index="241" raw="1">
              </CharString>
              <CharString index="242" raw="1">
              </CharString>
              <CharString index="243" raw="1">
              </CharString>
              <CharString index="244" raw="1">
              </CharString>
              <CharString index="245" raw="1">
              </CharString>
              <CharString index="246" raw="1">
              </CharString>
              <CharString index="247" raw="1">
              </CharString>
              <CharString index="248" raw="1">
              </CharString>
              <CharString index="249" raw="1">
              </CharString>
              <CharString index="250" raw="1">
              </CharString>
              <CharString index="251" raw="1">
              </CharString>
              <CharString index="252" raw="1">
              </CharString>
              <CharString index="253" raw="1">
              </CharString>
        <CharString name=".notdef" fdSelectIndex="5">
          -120 50 900 50 hstem
          100 50 700 50 vstem
          100 73 callgsubr
          800 1000 -800 hlineto
          400 -459 rmoveto
          -318 409 rlineto
          636 hlineto
          -286 -450 rmoveto
          318 409 rlineto
          -818 vlineto
          -668 -41 rmoveto
          318 409 318 -409 rlineto
          -668 859 rmoveto
          318 -409 -318 -409 rlineto
          endchar
        </CharString>
        <CharString name="cid00001" fdSelectIndex="15">
          -411 endchar
        </CharString>
        <CharString name="cid00066" fdSelectIndex="15">
          -72 callsubr
          -8 callsubr
          hintmask 10111000
          -90 callsubr
          hintmask 01111000
          -102 callsubr
          hintmask 10111000
          -98 callsubr
          endchar
        </CharString>
        <CharString name="cid00067" fdSelectIndex="15">
          -17 -13 76 -42 -21 480 77 hstemhm
          92 91 289 95 hintmask 10111000
          331 -13 rmoveto
          125 111 107 187 166 -76 110 -141 -60 -61 -34 -43 -49 hvcurveto
          3 98 rlineto
          218 -91 vlineto
          hintmask 01111000
          -796 73 vlineto
          hintmask 10111000
          8 56 rlineto
          3 hlineto
          -44 48 57 -25 50 hhcurveto
          -15 76 rmoveto
          -36 -49 15 42 -48 hvcurveto
          285 vlineto
          49 52 48 26 46 hhcurveto
          103 40 -81 -120 -135 -66 -81 -90 hvcurveto
          endchar
        </CharString>
        <CharString name="cid00068" fdSelectIndex="15">
          -47 callsubr
        </CharString>
        <CharString name="cid00069" fdSelectIndex="15">
          -15 -13 76 -42 -21 480 77 116 callsubr
          hintmask 10111000
          108 callsubr
          hintmask 01111000
          9 -64 rlineto
          74 796 -91 -209 hlineto
          5 -94 rlineto
          40 -48 -41 24 -64 hhcurveto
          -124 -111 256 callgsubr
          hvcurveto
          hintmask 10111000
          -181 88 -103 136 vhcurveto
          20 76 -36 callsubr
        </CharString>
        <CharString name="cid00070" fdSelectIndex="15">
          -64 callsubr
          hstem
          51 90 291 80 vstem
          -107 callsubr
          endchar
        </CharString>
        <CharString name="cid00071" fdSelectIndex="15">
          -310 89 callsubr
          193 73 hstem
          107 91 vstem
          356 791 rmoveto
          30 callsubr
          -87 vlineto
          -34 callsubr
          endchar
        </CharString>
        <CharString name="cid00072" fdSelectIndex="15">
          -72 -250 62 179 76 -46 -21 172 62 239 70 -53 67 hstemhm
          50 80 -59 88 -78 78 231 83 -12 88 hintmask 1101101000100000
          275 -250 rmoveto
          168 106 87 101 89 -63 40 -126 hvcurveto
          hintmask 1101100011000000
          -106 hlineto
          -73 -22 24 35 30 15 18 20 17 hvcurveto
          -12 24 30 -7 27 hhcurveto
          110 88 73 116 47 -18 40 -26 25 hvcurveto
          111 70 -189 hlineto
          hintmask 1101010101000000
          7 -19 -27 7 -30 hhcurveto
          -110 -94 -75 -119 -65 35 -52 36 -29 hvcurveto
          -4 vlineto
          hintmask 1011100011000000
          -28 -20 -33 -36 -45 vvcurveto
          -43 21 -29 29 -17 vhcurveto
          -4 vlineto
          hintmask 1011101001000000
          -51 -33 -30 -44 -46 vvcurveto
          hintmask 1101101000100000
          -94 92 -52 133 vhcurveto
          hintmask 1101010101000000
          484 vmoveto
          -63 -53 50 79 80 52 47 64 64 51 -48 -79 -79 -53 -50 -62 hvcurveto
          hintmask 1011101000100000
          13 -422 rmoveto
          -99 -59 38 58 32 17 32 39 28 hvcurveto
          hintmask 1101100100100000
          -6 24 26 -3 20 hhcurveto
          94 hlineto
          72 39 -17 -50 hvcurveto
          hintmask 1011101000100000
          -57 -69 -55 -104 vhcurveto
          endchar
        </CharString>
      <CharString index="0" raw="1">
      </CharString>
      <CharString index="1" raw="1">
      </CharString>
      <CharString index="2" raw="1">
      </CharString>
      <CharString index="3" raw="1">
      </CharString>
      <CharString index="4" raw="1">
      </CharString>
      <CharString index="5" raw="1">
      </CharString>
      <CharString index="6" raw="1">
      </CharString>
      <CharString index="7" raw="1">
      </CharString>
      <CharString index="8" raw="1">
      </CharString>
      <CharString index="9" raw="1">
      </CharString>
      <CharString index="10" raw="1">
      </CharString>
      <CharString index="11" raw="1">
      </CharString>
      <CharString index="12" raw="1">
      </CharString>
      <CharString index="13" raw="1">
      </CharString>
      <CharString index="14" raw="1">
      </CharString>
      <CharString index="15" raw="1">
      </CharString>
      <CharString index="16" raw="1">
      </CharString>
      <CharString index="17" raw="1">
      </CharString>
      <CharString index="18" raw="1">
      </CharString>
      <CharString index="19" raw="1">
      </CharString>
      <CharString index="20" raw="1">
      </CharString>
      <CharString index="21" raw="1">
      </CharString>
      <CharString index="22" raw="1">
      </CharString>
      <CharString index="23" raw="1">
      </CharString>
      <CharString index="24" raw="1">
      </CharString>
      <CharString index="25" raw="1">
      </CharString>
      <CharString index="26" raw="1">
      </CharString>
      <CharString index="27" raw="1">
      </CharString>
      <CharString index="28" raw="1">
      </CharString>
      <CharString index="29" raw="1">
      </CharString>
      <CharString index="30" raw="1">
      </CharString>
      <CharString index="31" raw="1">
      </CharString>
      <CharString index="32" raw="1">
      </CharString>
      <CharString index="33" raw="1">
      </CharString>
      <CharString index="34" raw="1">
      </CharString>
      <CharString index="35" raw="1">
      </CharString>
      <CharString index="36" raw="1">
      </CharString>
      <CharString index="37" raw="1">
      </CharString>
      <CharString index="38" raw="1">
      </CharString>
      <CharString index="39" raw="1">
      </CharString>
      <CharString index="40" raw="1">
      </CharString>
      <CharString index="41" raw="1">
      </CharString>
      <CharString index="42" raw="1">
      </CharString>
      <CharString index="43" raw="1">
      </CharString>
      <CharString index="44" raw="1">
      </CharString>
      <CharString index="45" raw="1">
      </CharString>
      <CharString index="46" raw="1">
      </CharString>
      <CharString index="47" raw="1">
      </CharString>
      <CharString index="48" raw="1">
      </CharString>
      <CharString index="49" raw="1">
      </CharString>
      <CharString index="50" raw="1">
      </CharString>
      <CharString index="51" raw="1">
      </CharString>
      <CharString index="52" raw="1">
      </CharString>
      <CharString index="53" raw="1">
      </CharString>
      <CharString index="54" raw="1">
      </CharString>
      <CharString index="55" raw="1">
      </CharString>
      <CharString index="56" raw="1">
      </CharString>
      <CharString index="57" raw="1">
      </CharString>
      <CharString index="58" raw="1">
      </CharString>
      <CharString index="59" raw="1">
      </CharString>
      <CharString index="60" raw="1">
      </CharString>
      <CharString index="61" raw="1">
      </CharString>
      <CharString index="62" raw="1">
      </CharString>
      <CharString index="63" raw="1">
      </CharString>
      <CharString index="64" raw="1">
      </CharString>
      <CharString index="65" raw="1">
      </CharString>
      <CharString index="66" raw="1">
      </CharString>
      <CharString index="67" raw="1">
      </CharString>
      <CharString index="68" raw="1">
      </CharString>
      <CharString index="69" raw="1">
      </CharString>
      <CharString index="70" raw="1">
      </CharString>
      <CharString index="71" raw="1">
      </CharString>
      <CharString index="72" raw="1">
      </CharString>
      <CharString index="73" raw="1">
      </CharString>
      <CharString index="74" raw="1">
      </CharString>
      <CharString index="75" raw="1">
      </CharString>
      <CharString index="76" raw="1">
      </CharString>
      <CharString index="77" raw="1">
      </CharString>
      <CharString index="78" raw="1">
      </CharString>
      <CharString index="79" raw="1">
      </CharString>
      <CharString index="80" raw="1">
      </CharString>
      <CharString index="81" raw="1">
      </CharString>
      <CharString index="82" raw="1">
      </CharString>
      <CharString index="83" raw="1">
      </CharString>
      <CharString index="84" raw="1">
      </CharString>
      <CharString index="85" raw="1">
      </CharString>
      <CharString index="86" raw="1">
      </CharString>
      <CharString index="87" raw="1">
      </CharString>
      <CharString index="88" raw="1">
      </CharString>
      <CharString index="89" raw="1">
      </CharString>
      <CharString index="90" raw="1">
      </CharString>
      <CharString index="91" raw="1">
      </CharString>
      <CharString index="92" raw="1">
      </CharString>
      <CharString index="93" raw="1">
      </CharString>
      <CharString index="94" raw="1">
      </CharString>
      <CharString index="95" raw="1">
      </CharString>
      <CharString index="96" raw="1">
      </CharString>
      <CharString index="97" raw="1">
      </CharString>
      <CharString index="98" raw="1">
      </CharString>
      <CharString index="99" raw="1">
      </CharString>
      <CharString index="100" raw="1">
      </CharString>
      <CharString index="101" raw="1">
      </CharString>
      <CharString index="102" raw="1">
      </CharString>
      <CharString index="103" raw="1">
      </CharString>
      <CharString index="104" raw="1">
      </CharString>
      <CharString index="105" raw="1">
      </CharString>
      <CharString index="106" raw="1">
      </CharString>
      <CharString index="107" raw="1">
      </CharString>
      <CharString index="108" raw="1">
      </CharString>
      <CharString index="109" raw="1">
      </CharString>
      <CharString index="110" raw="1">
      </CharString>
      <CharString index="111" raw="1">
      </CharString>
      <CharString index="112" raw="1">
      </CharString>
      <CharString index="113" raw="1">
      </CharString>
      <CharString index="114" raw="1">
      </CharString>
      <CharString index="115" raw="1">
      </CharString>
      <CharString index="116" raw="1">
      </CharString>
      <CharString index="117" raw="1">
      </CharString>
      <CharString index="118" raw="1">
      </CharString>
      <CharString index="119" raw="1">
      </CharString>
      <CharString index="120" raw="1">
      </CharString>
      <CharString index="121" raw="1">
      </CharString>
      <CharString index="122" raw="1">
      </CharString>
      <CharString index="123" raw="1">
      </CharString>
      <CharString index="124" raw="1">
      </CharString>
      <CharString index="125" raw="1">
      </CharString>
      <CharString index="126" raw="1">
      </CharString>
      <CharString index="127" raw="1">
      </CharString>
      <CharString index="128" raw="1">
      </CharString>
      <CharString index="129" raw="1">
      </CharString>
      <CharString index="130" raw="1">
      </CharString>
      <CharString index="131" raw="1">
      </CharString>
      <CharString index="132" raw="1">
      </CharString>
      <CharString index="133" raw="1">
      </CharString>
      <CharString index="134" raw="1">
      </CharString>
      <CharString index="135" raw="1">
      </CharString>
      <CharString index="136" raw="1">
      </CharString>
      <CharString index="137" raw="1">
      </CharString>
      <CharString index="138" raw="1">
      </CharString>
      <CharString index="139" raw="1">
      </CharString>
      <CharString index="140" raw="1">
      </CharString>
      <CharString index="141" raw="1">
      </CharString>
      <CharString index="142" raw="1">
      </CharString>
      <CharString index="143" raw="1">
      </CharString>
      <CharString index="144" raw="1">
      </CharString>
      <CharString index="145" raw="1">
      </CharString>
      <CharString index="146" raw="1">
      </CharString>
      <CharString index="147" raw="1">
      </CharString>
      <CharString index="148" raw="1">
      </CharString>
      <CharString index="149" raw="1">
      </CharString>
      <CharString index="150" raw="1">
      </CharString>
      <CharString index="151" raw="1">
      </CharString>
      <CharString index="152" raw="1">
      </CharString>
      <CharString index="153" raw="1">
      </CharString>
      <CharString index="154" raw="1">
      </CharString>
      <CharString index="155" raw="1">
      </CharString>
      <CharString index="156" raw="1">
      </CharString>
      <CharString index="157" raw="1">
      </CharString>
      <CharString index="158" raw="1">
      </CharString>
      <CharString index="159" raw="1">
      </CharString>
      <CharString index="160" raw="1">
      </CharString>
      <CharString index="161" raw="1">
      </CharString>
      <CharString index="162" raw="1">
      </CharString>
      <CharString index="163" raw="1">
      </CharString>
      <CharString index="164" raw="1">
      </CharString>
      <CharString index="165" raw="1">
      </CharString>
      <CharString index="166" raw="1">
      </CharString>
      <CharString index="167" raw="1">
      </CharString>
      <CharString index="168" raw="1">
      </CharString>
      <CharString index="169" raw="1">
      </CharString>
      <CharString index="170" raw="1">
      </CharString>
      <CharString index="171" raw="1">
      </CharString>
      <CharString index="172" raw="1">
      </CharString>
      <CharString index="173" raw="1">
      </CharString>
      <CharString index="174" raw="1">
      </CharString>
      <CharString index="175" raw="1">
      </CharString>
      <CharString index="176" raw="1">
      </CharString>
      <CharString index="177" raw="1">
      </CharString>
      <CharString index="178" raw="1">
      </CharString>
      <CharString index="179" raw="1">
      </CharString>
      <CharString index="180">
        -120 rmoveto
        return
      </CharString>
      <CharString index="181" raw="1">
      </CharString>
      <CharString index="182" raw="1">
      </CharString>
      <CharString index="183" raw="1">
      </CharString>
      <CharString index="184" raw="1">
      </CharString>
      <CharString index="185" raw="1">
      </CharString>
      <CharString index="186" raw="1">
      </CharString>
      <CharString index="187" raw="1">
      </CharString>
      <CharString index="188" raw="1">
      </CharString>
      <CharString index="189" raw="1">
      </CharString>
      <CharString index="190" raw="1">
      </CharString>
      <CharString index="191" raw="1">
      </CharString>
      <CharString index="192" raw="1">
      </CharString>
      <CharString index="193" raw="1">
      </CharString>
      <CharString index="194" raw="1">
      </CharString>
      <CharString index="195" raw="1">
      </CharString>
      <CharString index="196" raw="1">
      </CharString>
      <CharString index="197" raw="1">
      </CharString>
      <CharString index="198" raw="1">
      </CharString>
      <CharString index="199" raw="1">
      </CharString>
      <CharString index="200" raw="1">
      </CharString>
      <CharString index="201" raw="1">
      </CharString>
      <CharString index="202" raw="1">
      </CharString>
      <CharString index="203" raw="1">
      </CharString>
      <CharString index="204" raw="1">
      </CharString>
      <CharString index="205" raw="1">
      </CharString>
      <CharString index="206" raw="1">
      </CharString>
      <CharString index="207" raw="1">
      </CharString>
      <CharString index="208" raw="1">
      </CharString>
      <CharString index="209" raw="1">
      </CharString>
      <CharString index="210" raw="1">
      </CharString>
      <CharString index="211" raw="1">
      </CharString>
      <CharString index="212" raw="1">
      </CharString>
      <CharString index="213" raw="1">
      </CharString>
      <CharString index="214" raw="1">
      </CharString>
      <CharString index="215" raw="1">
      </CharString>
      <CharString index="216" raw="1">
      </CharString>
      <CharString index="217" raw="1">
      </CharString>
      <CharString index="218" raw="1">
      </CharString>
      <CharString index="219" raw="1">
      </CharString>
      <CharString index="220" raw="1">
      </CharString>
      <CharString index="221" raw="1">
      </CharString>
      <CharString index="222" raw="1">
      </CharString>
      <CharString index="223" raw="1">
      </CharString>
      <CharString index="224" raw="1">
      </CharString>
      <CharString index="225" raw="1">
      </CharString>
      <CharString index="226" raw="1">
      </CharString>
      <CharString index="227" raw="1">
      </CharString>
      <CharString index="228" raw="1">
      </CharString>
      <CharString index="229">
        440 callgsubr
        125 return
      </CharString>
      <CharString index="230" raw="1">
      </CharString>
      <CharString index="231" raw="1">
      </CharString>
      <CharString index="232" raw="1">
      </CharString>
      <CharString index="233" raw="1">
      </CharString>
      <CharString index="234" raw="1">
      </CharString>
      <CharString index="235" raw="1">
      </CharString>
      <CharString index="236" raw="1">
      </CharString>
      <CharString index="237" raw="1">
      </CharString>
      <CharString index="238" raw="1">
      </CharString>
      <CharString index="239" raw="1">
      </CharString>
      <CharString index="240" raw="1">
      </CharString>
      <CharString index="241" raw="1">
      </CharString>
      <CharString index="242" raw="1">
      </CharString>
      <CharString index="243" raw="1">
      </CharString>
      <CharString index="244" raw="1">
      </CharString>
      <CharString index="245" raw="1">
      </CharString>
      <CharString index="246" raw="1">
      </CharString>
      <CharString index="247" raw="1">
      </CharString>
      <CharString index="248" raw="1">
      </CharString>
      <CharString index="249" raw="1">
      </CharString>
      <CharString index="250" raw="1">
      </CharString>
      <CharString index="251" raw="1">
      </CharString>
      <CharString index="252" raw="1">
      </CharString>
      <CharString index="253" raw="1">
      </CharString>
      <CharString index="254" raw="1">
      </CharString>
      <CharString index="255" raw="1">
      </CharString>
      <CharString index="256" raw="1">
      </CharString>
      <CharString index="257" raw="1">
      </CharString>
      <CharString index="258" raw="1">
      </CharString>
      <CharString index="259" raw="1">
      </CharString>
      <CharString index="260" raw="1">
      </CharString>
      <CharString index="261" raw="1">
      </CharString>
      <CharString index="262" raw="1">
      </CharString>
      <CharString index="263" raw="1">
      </CharString>
      <CharString index="264" raw="1">
      </CharString>
      <CharString index="265" raw="1">
      </CharString>
      <CharString index="266" raw="1">
      </CharString>
      <CharString index="267" raw="1">
      </CharString>
      <CharString index="268" raw="1">
      </CharString>
      <CharString index="269" raw="1">
      </CharString>
      <CharString index="270" raw="1">
      </CharString>
      <CharString index="271" raw="1">
      </CharString>
      <CharString index="272" raw="1">
      </CharString>
      <CharString index="273" raw="1">
      </CharString>
      <CharString index="274" raw="1">
      </CharString>
      <CharString index="275" raw="1">
      </CharString>
      <CharString index="276" raw="1">
      </CharString>
      <CharString index="277" raw="1">
      </CharString>
      <CharString index="278" raw="1">
      </CharString>
      <CharString index="279" raw="1">
      </CharString>
      <CharString index="280" raw="1">
      </CharString>
      <CharString index="281" raw="1">
      </CharString>
      <CharString index="282" raw="1">
      </CharString>
      <CharString index="283" raw="1">
      </CharString>
      <CharString index="284" raw="1">
      </CharString>
      <CharString index="285" raw="1">
      </CharString>
      <CharString index="286" raw="1">
      </CharString>
      <CharString index="287" raw="1">
      </CharString>
      <CharString index="288" raw="1">
      </CharString>
      <CharString index="289" raw="1">
      </CharString>
      <CharString index="290" raw="1">
      </CharString>
      <CharString index="291" raw="1">
      </CharString>
      <CharString index="292" raw="1">
      </CharString>
      <CharString index="293" raw="1">
      </CharString>
      <CharString index="294" raw="1">
      </CharString>
      <CharString index="295" raw="1">
      </CharString>
      <CharString index="296" raw="1">
      </CharString>
      <CharString index="297" raw="1">
      </CharString>
      <CharString index="298" raw="1">
      </CharString>
      <CharString index="299" raw="1">
      </CharString>
      <CharString index="300" raw="1">
      </CharString>
      <CharString index="301" raw="1">
      </CharString>
      <CharString index="302" raw="1">
      </CharString>
      <CharString index="303" raw="1">
      </CharString>
      <CharString index="304" raw="1">
      </CharString>
      <CharString index="305" raw="1">
      </CharString>
      <CharString index="306" raw="1">
      </CharString>
      <CharString index="307" raw="1">
      </CharString>
      <CharString index="308" raw="1">
      </CharString>
      <CharString index="309" raw="1">
      </CharString>
      <CharString index="310" raw="1">
      </CharString>
      <CharString index="311" raw="1">
      </CharString>
      <CharString index="312" raw="1">
      </CharString>
      <CharString index="313" raw="1">
      </CharString>
      <CharString index="314" raw="1">
      </CharString>
      <CharString index="315" raw="1">
      </CharString>
      <CharString index="316" raw="1">
      </CharString>
      <CharString index="317" raw="1">
      </CharString>
      <CharString index="318" raw="1">
      </CharString>
      <CharString index="319" raw="1">
      </CharString>
      <CharString index="320" raw="1">
      </CharString>
      <CharString index="321" raw="1">
      </CharString>
      <CharString index="322" raw="1">
      </CharString>
      <CharString index="323" raw="1">
      </CharString>
      <CharString index="324" raw="1">
      </CharString>
      <CharString index="325" raw="1">
      </CharString>
      <CharString index="326" raw="1">
      </CharString>
      <CharString index="327" raw="1">
      </CharString>
      <CharString index="328" raw="1">
      </CharString>
      <CharString index="329" raw="1">
      </CharString>
      <CharString index="330" raw="1">
      </CharString>
      <CharString index="331" raw="1">
      </CharString>
      <CharString index="332" raw="1">
      </CharString>
      <CharString index="333" raw="1">
      </CharString>
      <CharString index="334" raw="1">
      </CharString>
      <CharString index="335" raw="1">
      </CharString>
      <CharString index="336" raw="1">
      </CharString>
      <CharString index="337" raw="1">
      </CharString>
      <CharString index="338" raw="1">
      </CharString>
      <CharString index="339" raw="1">
      </CharString>
      <CharString index="340" raw="1">
      </CharString>
      <CharString index="341" raw="1">
      </CharString>
      <CharString index="342" raw="1">
      </CharString>
      <CharString index="343" raw="1">
      </CharString>
      <CharString index="344" raw="1">
      </CharString>
      <CharString index="345" raw="1">
      </CharString>
      <CharString index="346" raw="1">
      </CharString>
      <CharString index="347" raw="1">
      </CharString>
      <CharString index="348" raw="1">
      </CharString>
      <CharString index="349" raw="1">
      </CharString>
      <CharString index="350" raw="1">
      </CharString>
      <CharString index="351" raw="1">
      </CharString>
      <CharString index="352" raw="1">
      </CharString>
      <CharString index="353" raw="1">
      </CharString>
      <CharString index="354" raw="1">
      </CharString>
      <CharString index="355">
        435 callgsubr
        vvcurveto
        return
      </CharString>
      <CharString index="356" raw="1">
      </CharString>
      <CharString index="357" raw="1">
      </CharString>
      <CharString index="358" raw="1">
      </CharString>
      <CharString index="359" raw="1">
      </CharString>
      <CharString index="360" raw="1">
      </CharString>
      <CharString index="361" raw="1">
      </CharString>
      <CharString index="362" raw="1">
      </CharString>
      <CharString index="363">
        -110 -176 return
      </CharString>
      <CharString index="364" raw="1">
      </CharString>
      <CharString index="365" raw="1">
      </CharString>
      <CharString index="366" raw="1">
      </CharString>
      <CharString index="367" raw="1">
      </CharString>
      <CharString index="368" raw="1">
      </CharString>
      <CharString index="369" raw="1">
      </CharString>
      <CharString index="370" raw="1">
      </CharString>
      <CharString index="371" raw="1">
      </CharString>
      <CharString index="372" raw="1">
      </CharString>
      <CharString index="373" raw="1">
      </CharString>
      <CharString index="374" raw="1">
      </CharString>
      <CharString index="375" raw="1">
      </CharString>
      <CharString index="376" raw="1">
      </CharString>
      <CharString index="377" raw="1">
      </CharString>
      <CharString index="378" raw="1">
      </CharString>
      <CharString index="379" raw="1">
      </CharString>
      <CharString index="380" raw="1">
      </CharString>
      <CharString index="381" raw="1">
      </CharString>
      <CharString index="382" raw="1">
      </CharString>
      <CharString index="383" raw="1">
      </CharString>
      <CharString index="384" raw="1">
      </CharString>
      <CharString index="385" raw="1">
      </CharString>
      <CharString index="386">
        -126 -119 return
      </CharString>
      <CharString index="387" raw="1">
      </CharString>
      <CharString index="388" raw="1">
      </CharString>
      <CharString index="389" raw="1">
      </CharString>
      <CharString index="390" raw="1">
      </CharString>
      <CharString index="391" raw="1">
      </CharString>
      <CharString index="392" raw="1">
      </CharString>
      <CharString index="393" raw="1">
      </CharString>
      <CharString index="394" raw="1">
      </CharString>
      <CharString index="395" raw="1">
      </CharString>
      <CharString index="396" raw="1">
      </CharString>
      <CharString index="397" raw="1">
      </CharString>
      <CharString index="398" raw="1">
      </CharString>
      <CharString index="399" raw="1">
      </CharString>
      <CharString index="400" raw="1">
      </CharString>
      <CharString index="401" raw="1">
      </CharString>
      <CharString index="402" raw="1">
      </CharString>
      <CharString index="403" raw="1">
      </CharString>
      <CharString index="404" raw="1">
      </CharString>
      <CharString index="405" raw="1">
      </CharString>
      <CharString index="406" raw="1">
      </CharString>
      <CharString index="407" raw="1">
      </CharString>
      <CharString index="408" raw="1">
      </CharString>
      <CharString index="409" raw="1">
      </CharString>
      <CharString index="410" raw="1">
      </CharString>
      <CharString index="411" raw="1">
      </CharString>
      <CharString index="412" raw="1">
      </CharString>
      <CharString index="413" raw="1">
      </CharString>
      <CharString index="414" raw="1">
      </CharString>
      <CharString index="415" raw="1">
      </CharString>
      <CharString index="416" raw="1">
      </CharString>
      <CharString index="417" raw="1">
      </CharString>
      <CharString index="418" raw="1">
      </CharString>
      <CharString index="419" raw="1">
      </CharString>
      <CharString index="420" raw="1">
      </CharString>
      <CharString index="421" raw="1">
      </CharString>
      <CharString index="422" raw="1">
      </CharString>
      <CharString index="423" raw="1">
      </CharString>
      <CharString index="424" raw="1">
      </CharString>
      <CharString index="425" raw="1">
      </CharString>
      <CharString index="426" raw="1">
      </CharString>
      <CharString index="427" raw="1">
      </CharString>
      <CharString index="428" raw="1">
      </CharString>
      <CharString index="429" raw="1">
      </CharString>
      <CharString index="430" raw="1">
      </CharString>
      <CharString index="431" raw="1">
      </CharString>
      <CharString index="432" raw="1">
      </CharString>
      <CharString index="433" raw="1">
      </CharString>
      <CharString index="434" raw="1">
      </CharString>
      <CharString index="435">
        19 22 -5 -9 20 vhcurveto
        return
      </CharString>
      <CharString index="436" raw="1">
      </CharString>
      <CharString index="437" raw="1">
      </CharString>
      <CharString index="438" raw="1">
      </CharString>
      <CharString index="439" raw="1">
      </CharString>
      <CharString index="440" raw="1">
      </CharString>
      <CharString index="441" raw="1">
      </CharString>
      <CharString index="442" raw="1">
      </CharString>
      <CharString index="443" raw="1">
      </CharString>
      <CharString index="444" raw="1">
      </CharString>
      <CharString index="445" raw="1">
      </CharString>
      <CharString index="446" raw="1">
      </CharString>
      <CharString index="447" raw="1">
      </CharString>
      <CharString index="448" raw="1">
      </CharString>
      <CharString index="449" raw="1">
      </CharString>
      <CharString index="450" raw="1">
      </CharString>
      <CharString index="451" raw="1">
      </CharString>
      <CharString index="452" raw="1">
      </CharString>
      <CharString index="453" raw="1">
      </CharString>
      <CharString index="454" raw="1">
      </CharString>
      <CharString index="455" raw="1">
      </CharString>
      <CharString index="456" raw="1">
      </CharString>
      <CharString index="457" raw="1">
      </CharString>
      <CharString index="458" raw="1">
      </CharString>
      <CharString index="459" raw="1">
      </CharString>
      <CharString index="460" raw="1">
      </CharString>
      <CharString index="461" raw="1">
      </CharString>
      <CharString index="462" raw="1">
      </CharString>
      <CharString index="463" raw="1">
      </CharString>
      <CharString index="464" raw="1">
      </CharString>
      <CharString index="465" raw="1">
      </CharString>
      <CharString index="466" raw="1">
      </CharString>
      <CharString index="467" raw="1">
      </CharString>
      <CharString index="468" raw="1">
      </CharString>
      <CharString index="469" raw="1">
      </CharString>
      <CharString index="470" raw="1">
      </CharString>
      <CharString index="471" raw="1">
      </CharString>
      <CharString index="472" raw="1">
      </CharString>
      <CharString index="473" raw="1">
      </CharString>
      <CharString index="474" raw="1">
      </CharString>
      <CharString index="475" raw="1">
      </CharString>
      <CharString index="476" raw="1">
      </CharString>
      <CharString index="477" raw="1">
      </CharString>
      <CharString index="478" raw="1">
      </CharString>
      <CharString index="479" raw="1">
      </CharString>
      <CharString index="480" raw="1">
      </CharString>
      <CharString index="481" raw="1">
      </CharString>
      <CharString index="482" raw="1">
      </CharString>
      <CharString index="483" raw="1">
      </CharString>
      <CharString index="484" raw="1">
      </CharString>
      <CharString index="485" raw="1">
      </CharString>
      <CharString index="486" raw="1">
      </CharString>
      <CharString index="487" raw="1">
      </CharString>
      <CharString index="488" raw="1">
      </CharString>
      <CharString index="489" raw="1">
      </CharString>
      <CharString index="490" raw="1">
      </CharString>
      <CharString index="491" raw="1">
      </CharString>
      <CharString index="492" raw="1">
      </CharString>
      <CharString index="493" raw="1">
      </CharString>
      <CharString index="494" raw="1">
      </CharString>
      <CharString index="495" raw="1">
      </CharString>
      <CharString index="496" raw="1">
      </CharString>
      <CharString index="497" raw="1">
      </CharString>
      <CharString index="498" raw="1">
      </CharString>
      <CharString index="499" raw="1">
      </CharString>
      <CharString index="500" raw="1">
      </CharString>
      <CharString index="501" raw="1">
      </CharString>
      <CharString index="502" raw="1">
      </CharString>
      <CharString index="503" raw="1">
      </CharString>
      <CharString index="504" raw="1">
      </CharString>
      <CharString index="505" raw="1">
      </CharString>
      <CharString index="506" raw="1">
      </CharString>
      <CharString index="507" raw="1">
      </CharString>
      <CharString index="508" raw="1">
      </CharString>
      <CharString index="509" raw="1">
      </CharString>
      <CharString index="510" raw="1">
      </CharString>
      <CharString index="511" raw="1">
      </CharString>
      <CharString index="512" raw="1">
      </CharString>
      <CharString index="513" raw="1">
      </CharString>
      <CharString index="514" raw="1">
      </CharString>
      <CharString index="515" raw="1">
      </CharString>
      <CharString index="516" raw="1">
      </CharString>
      <CharString index="517" raw="1">
      </CharString>
      <CharString index="518" raw="1">
      </CharString>
      <CharString index="519" raw="1">
      </CharString>
      <CharString index="520" raw="1">
      </CharString>
      <CharString index="521" raw="1">
      </CharString>
      <CharString index="522" raw="1">
      </CharString>
      <CharString index="523" raw="1">
      </CharString>
      <CharString index="524" raw="1">
      </CharString>
      <CharString index="525" raw="1">
      </CharString>
      <CharString index="526" raw="1">
      </CharString>
      <CharString index="527" raw="1">
      </CharString>
      <CharString index="528" raw="1">
      </CharString>
      <CharString index="529" raw="1">
      </CharString>
      <CharString index="530" raw="1">
      </CharString>
      <CharString index="531" raw="1">
      </CharString>
      <CharString index="532" raw="1">
      </CharString>
      <CharString index="533" raw="1">
      </CharString>
      <CharString index="534" raw="1">
      </CharString>
      <CharString index="535" raw="1">
      </CharString>
      <CharString index="536" raw="1">
      </CharString>
      <CharString index="537" raw="1">
      </CharString>
      <CharString index="538" raw="1">
      </CharString>
      <CharString index="539" raw="1">
      </CharString>
      <CharString index="540" raw="1">
      </CharString>
      <CharString index="541" raw="1">
      </CharString>
      <CharString index="542">
        -59 -118 return
      </CharString>
      <CharString index="543" raw="1">
      </CharString>
      <CharString index="544" raw="1">
      </CharString>
      <CharString index="545" raw="1">
      </CharString>
      <CharString index="546" raw="1">
      </CharString>
      <CharString index="547">
        83 125 return
      </CharString>
      <CharString index="548" raw="1">
      </CharString>
</ttFont>
